<svg class="svg-icon" style="width: 1em;height: 1em;vertical-align: middle;fill: currentColor;overflow: hidden;" viewBox="0 0 1024 1024" version="1.1" xmlns="http://www.w3.org/2000/svg"><path d="M512 950.869333c124.16-3.072 227.626667-45.909333 310.272-128.597333 82.688-82.645333 125.525333-186.069333 128.597333-310.272-3.072-124.16-45.909333-227.626667-128.597333-310.272C739.626667 119.04 636.202667 76.202667 512 73.130667c-124.16 3.072-227.626667 45.909333-310.272 128.597333C119.04 284.373333 76.202667 387.797333 73.130667 512c3.072 124.16 45.909333 227.626667 128.597333 310.272C284.373333 904.96 387.797333 947.797333 512 950.869333zM512 1024c-144.768-3.84-265.344-53.888-361.728-150.272C53.888 777.301333 3.84 656.768 0 512c3.84-144.768 53.888-265.344 150.272-361.728C246.698667 53.888 367.232 3.84 512 0c144.768 3.84 265.344 53.888 361.728 150.272C970.112 246.698667 1020.16 367.232 1024 512c-3.84 144.768-53.888 265.344-150.272 361.728C777.301333 970.112 656.768 1020.16 512 1024z" fill="#000000" /></svg>